<svg width="28" height="42" viewBox="0 0 28 42" fill="none" xmlns="http://www.w3.org/2000/svg">
<path d="M19.2 41.96C16.384 41.96 13.9307 41.448 11.84 40.424C9.792 39.4 8.21333 37.992 7.104 36.2C5.99467 34.408 5.44 32.3813 5.44 30.12V10.6H0.96V9H5.44V5.8C5.44 1.96 7.36 0.0399971 11.2 0.0399971H15.68V9H24.64V10.6H15.68V30.12C15.68 34.0453 16.0853 36.7333 16.896 38.184C17.7067 39.6347 18.9013 40.36 20.48 40.36C22.016 40.36 23.36 39.6133 24.512 38.12C25.664 36.6267 26.24 34.6 26.24 32.04H27.84C27.84 35.1973 27.0507 37.6507 25.472 39.4C23.8933 41.1067 21.8027 41.96 19.2 41.96Z" fill="#886138"/>
</svg>
