<svg width="281" height="362" viewBox="0 0 281 362" fill="none" xmlns="http://www.w3.org/2000/svg">
<path d="M17.6179 181.163C13.2788 167.948 11.0456 154.135 11 140.228C11.0002 122.534 14.6404 105.029 21.6949 88.7971C28.7493 72.5651 39.0679 57.9521 52.0111 45.8635C64.9543 33.775 80.2465 24.4684 96.9401 18.5205C113.634 12.5726 131.373 10.1101 149.059 11.2855C213 15.3917 264.984 66.9007 269.587 130.696C270.716 146.745 268.911 162.866 264.259 178.269C243.446 247.916 140.48 350.487 140.48 350.487C140.48 350.487 43.5779 261.309 17.6179 181.163Z" fill="#FFF5E1" stroke="#C9593F" stroke-width="22" stroke-linecap="round" stroke-linejoin="round"/>
<path d="M138.986 194.48C169.589 194.48 194.397 169.88 194.397 139.534C194.397 109.188 169.589 84.5884 138.986 84.5884C108.383 84.5884 83.5742 109.188 83.5742 139.534C83.5742 169.88 108.383 194.48 138.986 194.48Z" fill="#E0D3C1"/>
<path d="M201.262 140.515C201.262 152.547 197.696 164.308 191.015 174.312C184.333 184.316 174.837 192.113 163.726 196.718C152.615 201.322 140.389 202.527 128.594 200.179C116.799 197.832 105.965 192.038 97.4609 183.531C88.9571 175.023 83.1659 164.184 80.8198 152.383C78.4736 140.583 79.6777 128.351 84.2799 117.236C88.8822 106.12 96.6757 96.619 106.675 89.9346C116.675 83.2502 128.431 79.6824 140.457 79.6824C156.583 79.6824 172.05 86.0915 183.453 97.4999C194.856 108.908 201.262 124.381 201.262 140.515V140.515Z" stroke="#C9593F" stroke-width="17.76" stroke-linecap="round" stroke-linejoin="round"/>
<path d="M229.703 133.647H203.224V144.44H229.703V133.647Z" fill="#C9593F" stroke="#C9593F" stroke-width="17.76" stroke-linecap="round" stroke-linejoin="round"/>
<path d="M181.53 144.453C182.593 145.118 176.65 170.602 155.112 179.103C135.019 187.015 115.479 174.59 113.958 173.593C111.497 171.978 109.203 170.118 107.112 168.039C108.617 165.613 110.852 163.735 113.491 162.679C119.944 160.374 125.249 165.616 134.753 168.039C141.405 169.532 148.3 169.532 154.952 168.039C172.781 163.59 180.605 143.853 181.53 144.453Z" fill="#FFFFF6"/>
</svg>
