<svg width="1333" height="354" viewBox="0 0 1333 354" fill="none" xmlns="http://www.w3.org/2000/svg">
<path d="M968.933 137.843C965.699 127.992 964.034 117.696 964 107.329C964 94.1401 966.714 81.0914 971.972 68.9917C977.231 56.892 984.922 45.9991 994.571 36.988C1004.22 27.977 1015.62 21.0397 1028.06 16.606C1040.51 12.1723 1053.73 10.3366 1066.91 11.2128C1114.58 14.2737 1153.32 52.6696 1156.76 100.224C1157.6 112.188 1156.25 124.204 1152.78 135.686C1137.27 187.602 1060.52 264.061 1060.52 264.061C1060.52 264.061 988.284 197.586 968.933 137.843Z" fill="#FFF5E1" stroke="#C9593F" stroke-width="22" stroke-linecap="round" stroke-linejoin="round"/>
<path d="M1059.4 147.77C1082.22 147.77 1100.71 129.433 1100.71 106.812C1100.71 84.192 1082.22 65.8545 1059.4 65.8545C1036.59 65.8545 1018.1 84.192 1018.1 106.812C1018.1 129.433 1036.59 147.77 1059.4 147.77Z" fill="#E0D3C1"/>
<path d="M1105.83 107.543C1105.83 116.512 1103.17 125.279 1098.19 132.736C1093.21 140.194 1086.13 146.006 1077.85 149.438C1069.56 152.87 1060.45 153.768 1051.66 152.018C1042.87 150.269 1034.79 145.95 1028.45 139.608C1022.11 133.266 1017.79 125.186 1016.05 116.39C1014.3 107.594 1015.19 98.4762 1018.62 90.1902C1022.06 81.9043 1027.86 74.8222 1035.32 69.8395C1042.77 64.8568 1051.54 62.1973 1060.5 62.1973C1072.52 62.1973 1084.05 66.9748 1092.55 75.4789C1101.05 83.9829 1105.83 95.5169 1105.83 107.543V107.543Z" stroke="#C9593F" stroke-width="17.76" stroke-linecap="round" stroke-linejoin="round"/>
<path d="M1127.03 102.424H1107.29V110.469H1127.03V102.424Z" fill="#C9593F" stroke="#C9593F" stroke-width="17.76" stroke-linecap="round" stroke-linejoin="round"/>
<path d="M1091.12 110.479C1091.91 110.974 1087.48 129.97 1071.42 136.308C1056.45 142.205 1041.88 132.943 1040.75 132.2C1038.91 130.997 1037.2 129.61 1035.64 128.06C1036.77 126.252 1038.43 124.852 1040.4 124.065C1045.21 122.346 1049.16 126.254 1056.25 128.06C1061.21 129.173 1066.35 129.173 1071.31 128.06C1084.6 124.744 1090.43 110.031 1091.12 110.479Z" fill="#FFFFF6"/>
<path d="M78.418 268H39.8438V156.77H4.98047V125.227H113.184V156.77H78.418V268ZM233.191 268L226.16 241.242H179.773L172.547 268H130.164L176.746 124.641H228.211L275.379 268H233.191ZM218.152 209.602L212 186.164C210.568 180.956 208.81 174.217 206.727 165.949C204.708 157.681 203.374 151.757 202.723 148.176C202.137 151.496 200.965 156.965 199.207 164.582C197.514 172.199 193.706 187.206 187.781 209.602H218.152ZM424.879 268H381.324L353.102 213.41L341.676 220.246V268H302.906V125.227H341.676V187.238C343.629 183.397 347.568 177.31 353.492 168.977L383.473 125.227H425.66L380.641 189.191L424.879 268ZM540.004 268L532.973 241.242H486.586L479.359 268H436.977L483.559 124.641H535.023L582.191 268H540.004ZM524.965 209.602L518.812 186.164C517.38 180.956 515.622 174.217 513.539 165.949C511.521 157.681 510.186 151.757 509.535 148.176C508.949 151.496 507.777 156.965 506.02 164.582C504.327 172.199 500.518 187.206 494.594 209.602H524.965ZM713.332 170.637C713.332 186.587 708.612 198.924 699.172 207.648C689.797 216.307 676.451 220.637 659.133 220.637H648.293V268H609.719V125.227H659.133C677.167 125.227 690.708 129.165 699.758 137.043C708.807 144.921 713.332 156.118 713.332 170.637ZM648.293 189.191H655.324C661.118 189.191 665.708 187.564 669.094 184.309C672.544 181.053 674.27 176.561 674.27 170.832C674.27 161.197 668.931 156.379 658.254 156.379H648.293V189.191ZM832.852 268H748.086V125.227H832.852V156.184H786.66V178.645H829.434V209.602H786.66V236.555H832.852V268Z" fill="#C9593F"/>
</svg>
