<svg width="277" height="358" viewBox="0 0 277 358" fill="none" xmlns="http://www.w3.org/2000/svg">
<path d="M15.6179 179.163C11.2788 165.948 9.04564 152.135 9 138.228C9.00024 120.534 12.6404 103.029 19.6949 86.7971C26.7493 70.5651 37.0679 55.9521 50.0111 43.8635C62.9543 31.775 78.2465 22.4684 94.9401 16.5205C111.634 10.5726 129.373 8.11007 147.059 9.28547C211 13.3917 262.984 64.9007 267.587 128.696C268.716 144.745 266.911 160.866 262.259 176.269C241.446 245.916 138.48 348.487 138.48 348.487C138.48 348.487 41.5779 259.309 15.6179 179.163Z" fill="#DECDC3" stroke="#605047" stroke-width="17.76" stroke-linecap="round" stroke-linejoin="round"/>
<path d="M136.986 192.48C167.589 192.48 192.397 167.88 192.397 137.534C192.397 107.188 167.589 82.5883 136.986 82.5883C106.383 82.5883 81.5743 107.188 81.5743 137.534C81.5743 167.88 106.383 192.48 136.986 192.48Z" fill="#A17C6A"/>
<path d="M199.262 138.515C199.262 150.547 195.696 162.308 189.015 172.312C182.333 182.316 172.837 190.113 161.726 194.718C150.615 199.322 138.389 200.527 126.594 198.179C114.799 195.832 103.965 190.038 95.4609 181.531C86.9571 173.023 81.1659 162.184 78.8198 150.383C76.4736 138.583 77.6777 126.351 82.2799 115.236C86.8822 104.12 94.6757 94.619 104.675 87.9346C114.675 81.2502 126.431 77.6824 138.457 77.6824C154.583 77.6824 170.05 84.0915 181.453 95.4999C192.856 106.908 199.262 122.381 199.262 138.515V138.515Z" stroke="#605047" stroke-width="17.76" stroke-linecap="round" stroke-linejoin="round"/>
<path d="M227.704 131.647H201.224V142.44H227.704V131.647Z" fill="#DECDC3" stroke="#605047" stroke-width="17.76" stroke-linecap="round" stroke-linejoin="round"/>
<path d="M179.53 142.453C180.593 143.118 174.651 168.602 153.112 177.103C133.019 185.015 113.479 172.59 111.958 171.593C109.497 169.978 107.203 168.118 105.112 166.039C106.618 163.613 108.852 161.735 111.491 160.679C117.944 158.374 123.249 163.616 132.753 166.039C139.405 167.532 146.301 167.532 152.952 166.039C170.781 161.59 178.605 141.853 179.53 142.453Z" fill="#DECDC3"/>
</svg>
