<svg width="1096" height="358" viewBox="0 0 1096 358" fill="none" xmlns="http://www.w3.org/2000/svg">
<path d="M15.6179 179.163C11.2788 165.948 9.04564 152.135 9 138.228C9.00024 120.534 12.6404 103.029 19.6949 86.7971C26.7493 70.5651 37.0679 55.9521 50.0111 43.8635C62.9543 31.775 78.2465 22.4684 94.9401 16.5205C111.634 10.5726 129.373 8.11007 147.059 9.28547C211 13.3917 262.984 64.9007 267.587 128.696C268.716 144.745 266.911 160.866 262.259 176.269C241.446 245.916 138.48 348.487 138.48 348.487C138.48 348.487 41.5779 259.309 15.6179 179.163Z" fill="#DECDC3" stroke="#605047" stroke-width="17.76" stroke-linecap="round" stroke-linejoin="round"/>
<path d="M136.986 192.48C167.589 192.48 192.397 167.88 192.397 137.534C192.397 107.188 167.589 82.5883 136.986 82.5883C106.383 82.5883 81.5743 107.188 81.5743 137.534C81.5743 167.88 106.383 192.48 136.986 192.48Z" fill="#A17C6A"/>
<path d="M199.262 138.515C199.262 150.547 195.696 162.308 189.015 172.312C182.333 182.316 172.837 190.113 161.726 194.718C150.615 199.322 138.389 200.527 126.594 198.179C114.799 195.832 103.965 190.038 95.4609 181.531C86.9571 173.023 81.1659 162.184 78.8198 150.383C76.4736 138.583 77.6777 126.351 82.2799 115.236C86.8822 104.12 94.6757 94.619 104.675 87.9346C114.675 81.2502 126.431 77.6824 138.457 77.6824C154.583 77.6824 170.05 84.0915 181.453 95.4999C192.856 106.908 199.262 122.381 199.262 138.515V138.515Z" stroke="#605047" stroke-width="17.76" stroke-linecap="round" stroke-linejoin="round"/>
<path d="M227.704 131.647H201.224V142.44H227.704V131.647Z" fill="#DECDC3" stroke="#605047" stroke-width="17.76" stroke-linecap="round" stroke-linejoin="round"/>
<path d="M179.53 142.453C180.593 143.118 174.651 168.602 153.112 177.103C133.019 185.015 113.479 172.59 111.958 171.593C109.497 169.978 107.203 168.118 105.112 166.039C106.618 163.613 108.852 161.735 111.491 160.679C117.944 158.374 123.249 163.616 132.753 166.039C139.405 167.532 146.301 167.532 152.952 166.039C170.781 161.59 178.605 141.853 179.53 142.453Z" fill="#DECDC3"/>
<path d="M417.4 161.2V214.8C417.4 218.533 418.267 221.267 420 223C421.867 224.6 424.933 225.4 429.2 225.4H442.2V249H424.6C401 249 389.2 237.533 389.2 214.6V161.2H376V138.2H389.2V110.8H417.4V138.2H442.2V161.2H417.4ZM449.139 193.2C449.139 182 451.339 172.067 455.739 163.4C460.272 154.733 466.339 148.067 473.939 143.4C481.672 138.733 490.272 136.4 499.739 136.4C508.006 136.4 515.206 138.067 521.339 141.4C527.606 144.733 532.606 148.933 536.339 154V138.2H564.539V249H536.339V232.8C532.739 238 527.739 242.333 521.339 245.8C515.072 249.133 507.806 250.8 499.539 250.8C490.206 250.8 481.672 248.4 473.939 243.6C466.339 238.8 460.272 232.067 455.739 223.4C451.339 214.6 449.139 204.533 449.139 193.2ZM536.339 193.6C536.339 186.8 535.006 181 532.339 176.2C529.672 171.267 526.072 167.533 521.539 165C517.006 162.333 512.139 161 506.939 161C501.739 161 496.939 162.267 492.539 164.8C488.139 167.333 484.539 171.067 481.739 176C479.072 180.8 477.739 186.533 477.739 193.2C477.739 199.867 479.072 205.733 481.739 210.8C484.539 215.733 488.139 219.533 492.539 222.2C497.072 224.867 501.872 226.2 506.939 226.2C512.139 226.2 517.006 224.933 521.539 222.4C526.072 219.733 529.672 216 532.339 211.2C535.006 206.267 536.339 200.4 536.339 193.6ZM651.486 249L613.886 201.8V249H585.886V101H613.886V185.2L651.086 138.2H687.486L638.686 193.8L687.886 249H651.486ZM689.483 193.2C689.483 182 691.683 172.067 696.083 163.4C700.616 154.733 706.683 148.067 714.283 143.4C722.016 138.733 730.616 136.4 740.083 136.4C748.349 136.4 755.549 138.067 761.683 141.4C767.949 144.733 772.949 148.933 776.683 154V138.2H804.883V249H776.683V232.8C773.083 238 768.083 242.333 761.683 245.8C755.416 249.133 748.149 250.8 739.883 250.8C730.549 250.8 722.016 248.4 714.283 243.6C706.683 238.8 700.616 232.067 696.083 223.4C691.683 214.6 689.483 204.533 689.483 193.2ZM776.683 193.6C776.683 186.8 775.349 181 772.683 176.2C770.016 171.267 766.416 167.533 761.883 165C757.349 162.333 752.483 161 747.283 161C742.083 161 737.283 162.267 732.883 164.8C728.483 167.333 724.883 171.067 722.083 176C719.416 180.8 718.083 186.533 718.083 193.2C718.083 199.867 719.416 205.733 722.083 210.8C724.883 215.733 728.483 219.533 732.883 222.2C737.416 224.867 742.216 226.2 747.283 226.2C752.483 226.2 757.349 224.933 761.883 222.4C766.416 219.733 770.016 216 772.683 211.2C775.349 206.267 776.683 200.4 776.683 193.6ZM854.23 154.2C857.83 149.133 862.763 144.933 869.03 141.6C875.43 138.133 882.696 136.4 890.83 136.4C900.296 136.4 908.83 138.733 916.43 143.4C924.163 148.067 930.23 154.733 934.63 163.4C939.163 171.933 941.43 181.867 941.43 193.2C941.43 204.533 939.163 214.6 934.63 223.4C930.23 232.067 924.163 238.8 916.43 243.6C908.83 248.4 900.296 250.8 890.83 250.8C882.696 250.8 875.496 249.133 869.23 245.8C863.096 242.467 858.096 238.267 854.23 233.2V301.8H826.23V138.2H854.23V154.2ZM912.83 193.2C912.83 186.533 911.43 180.8 908.63 176C905.963 171.067 902.363 167.333 897.83 164.8C893.43 162.267 888.63 161 883.43 161C878.363 161 873.563 162.333 869.03 165C864.63 167.533 861.03 171.267 858.23 176.2C855.563 181.133 854.23 186.933 854.23 193.6C854.23 200.267 855.563 206.067 858.23 211C861.03 215.933 864.63 219.733 869.03 222.4C873.563 224.933 878.363 226.2 883.43 226.2C888.63 226.2 893.43 224.867 897.83 222.2C902.363 219.533 905.963 215.733 908.63 210.8C911.43 205.867 912.83 200 912.83 193.2ZM1058.78 191.2C1058.78 195.2 1058.51 198.8 1057.98 202H976.977C977.643 210 980.443 216.267 985.377 220.8C990.31 225.333 996.377 227.6 1003.58 227.6C1013.98 227.6 1021.38 223.133 1025.78 214.2H1055.98C1052.78 224.867 1046.64 233.667 1037.58 240.6C1028.51 247.4 1017.38 250.8 1004.18 250.8C993.51 250.8 983.91 248.467 975.377 243.8C966.977 239 960.377 232.267 955.577 223.6C950.91 214.933 948.577 204.933 948.577 193.6C948.577 182.133 950.91 172.067 955.577 163.4C960.243 154.733 966.777 148.067 975.177 143.4C983.577 138.733 993.243 136.4 1004.18 136.4C1014.71 136.4 1024.11 138.667 1032.38 143.2C1040.78 147.733 1047.24 154.2 1051.78 162.6C1056.44 170.867 1058.78 180.4 1058.78 191.2ZM1029.78 183.2C1029.64 176 1027.04 170.267 1021.98 166C1016.91 161.6 1010.71 159.4 1003.38 159.4C996.443 159.4 990.577 161.533 985.777 165.8C981.11 169.933 978.243 175.733 977.177 183.2H1029.78Z" fill="#605047"/>
</svg>
