<svg width="1150" height="362" viewBox="0 0 1150 362" fill="none" xmlns="http://www.w3.org/2000/svg">
<path d="M17.6179 181.163C13.2788 167.948 11.0456 154.135 11 140.228C11.0002 122.534 14.6404 105.029 21.6949 88.7971C28.7493 72.5651 39.0679 57.9521 52.0111 45.8635C64.9543 33.775 80.2465 24.4684 96.9401 18.5205C113.634 12.5726 131.373 10.1101 149.059 11.2855C213 15.3917 264.984 66.9007 269.587 130.696C270.716 146.745 268.911 162.866 264.259 178.269C243.446 247.916 140.48 350.487 140.48 350.487C140.48 350.487 43.5779 261.309 17.6179 181.163Z" fill="#E0D3C1" stroke="#83564B" stroke-width="22" stroke-linecap="round" stroke-linejoin="round"/>
<path d="M138.986 194.48C169.589 194.48 194.397 169.88 194.397 139.534C194.397 109.188 169.589 84.5884 138.986 84.5884C108.383 84.5884 83.5742 109.188 83.5742 139.534C83.5742 169.88 108.383 194.48 138.986 194.48Z" fill="#A58881"/>
<path d="M201.262 140.515C201.262 152.547 197.696 164.308 191.015 174.312C184.333 184.316 174.837 192.113 163.726 196.718C152.615 201.322 140.389 202.527 128.594 200.179C116.799 197.832 105.965 192.038 97.4609 183.531C88.9571 175.023 83.1659 164.184 80.8198 152.383C78.4736 140.583 79.6777 128.351 84.2799 117.236C88.8822 106.12 96.6757 96.619 106.675 89.9346C116.675 83.2502 128.431 79.6824 140.457 79.6824C156.583 79.6824 172.05 86.0915 183.453 97.4999C194.856 108.908 201.262 124.381 201.262 140.515V140.515Z" stroke="#83564B" stroke-width="17.76" stroke-linecap="round" stroke-linejoin="round"/>
<path d="M229.703 133.647H203.224V144.44H229.703V133.647Z" fill="#83564B" stroke="#83564B" stroke-width="17.76" stroke-linecap="round" stroke-linejoin="round"/>
<path d="M181.53 144.453C182.593 145.118 176.65 170.602 155.112 179.103C135.019 187.015 115.479 174.59 113.958 173.593C111.497 171.978 109.203 170.118 107.112 168.039C108.617 165.613 110.852 163.735 113.491 162.679C119.944 160.374 125.249 165.616 134.753 168.039C141.405 169.532 148.3 169.532 154.952 168.039C172.781 163.59 180.605 143.853 181.53 144.453Z" fill="#E0D3C1" fill-opacity="0.62"/>
<path d="M471.4 163.2V216.8C471.4 220.533 472.267 223.267 474 225C475.867 226.6 478.933 227.4 483.2 227.4H496.2V251H478.6C455 251 443.2 239.533 443.2 216.6V163.2H430V140.2H443.2V112.8H471.4V140.2H496.2V163.2H471.4ZM503.139 195.2C503.139 184 505.339 174.067 509.739 165.4C514.272 156.733 520.339 150.067 527.939 145.4C535.672 140.733 544.272 138.4 553.739 138.4C562.006 138.4 569.206 140.067 575.339 143.4C581.606 146.733 586.606 150.933 590.339 156V140.2H618.539V251H590.339V234.8C586.739 240 581.739 244.333 575.339 247.8C569.072 251.133 561.806 252.8 553.539 252.8C544.206 252.8 535.672 250.4 527.939 245.6C520.339 240.8 514.272 234.067 509.739 225.4C505.339 216.6 503.139 206.533 503.139 195.2ZM590.339 195.6C590.339 188.8 589.006 183 586.339 178.2C583.672 173.267 580.072 169.533 575.539 167C571.006 164.333 566.139 163 560.939 163C555.739 163 550.939 164.267 546.539 166.8C542.139 169.333 538.539 173.067 535.739 178C533.072 182.8 531.739 188.533 531.739 195.2C531.739 201.867 533.072 207.733 535.739 212.8C538.539 217.733 542.139 221.533 546.539 224.2C551.072 226.867 555.872 228.2 560.939 228.2C566.139 228.2 571.006 226.933 575.539 224.4C580.072 221.733 583.672 218 586.339 213.2C589.006 208.267 590.339 202.4 590.339 195.6ZM705.486 251L667.886 203.8V251H639.886V103H667.886V187.2L705.086 140.2H741.486L692.686 195.8L741.886 251H705.486ZM743.483 195.2C743.483 184 745.683 174.067 750.083 165.4C754.616 156.733 760.683 150.067 768.283 145.4C776.016 140.733 784.616 138.4 794.083 138.4C802.349 138.4 809.549 140.067 815.683 143.4C821.949 146.733 826.949 150.933 830.683 156V140.2H858.883V251H830.683V234.8C827.083 240 822.083 244.333 815.683 247.8C809.416 251.133 802.149 252.8 793.883 252.8C784.549 252.8 776.016 250.4 768.283 245.6C760.683 240.8 754.616 234.067 750.083 225.4C745.683 216.6 743.483 206.533 743.483 195.2ZM830.683 195.6C830.683 188.8 829.349 183 826.683 178.2C824.016 173.267 820.416 169.533 815.883 167C811.349 164.333 806.483 163 801.283 163C796.083 163 791.283 164.267 786.883 166.8C782.483 169.333 778.883 173.067 776.083 178C773.416 182.8 772.083 188.533 772.083 195.2C772.083 201.867 773.416 207.733 776.083 212.8C778.883 217.733 782.483 221.533 786.883 224.2C791.416 226.867 796.216 228.2 801.283 228.2C806.483 228.2 811.349 226.933 815.883 224.4C820.416 221.733 824.016 218 826.683 213.2C829.349 208.267 830.683 202.4 830.683 195.6ZM908.23 156.2C911.83 151.133 916.763 146.933 923.03 143.6C929.43 140.133 936.696 138.4 944.83 138.4C954.296 138.4 962.83 140.733 970.43 145.4C978.163 150.067 984.23 156.733 988.63 165.4C993.163 173.933 995.43 183.867 995.43 195.2C995.43 206.533 993.163 216.6 988.63 225.4C984.23 234.067 978.163 240.8 970.43 245.6C962.83 250.4 954.296 252.8 944.83 252.8C936.696 252.8 929.496 251.133 923.23 247.8C917.096 244.467 912.096 240.267 908.23 235.2V303.8H880.23V140.2H908.23V156.2ZM966.83 195.2C966.83 188.533 965.43 182.8 962.63 178C959.963 173.067 956.363 169.333 951.83 166.8C947.43 164.267 942.63 163 937.43 163C932.363 163 927.563 164.333 923.03 167C918.63 169.533 915.03 173.267 912.23 178.2C909.563 183.133 908.23 188.933 908.23 195.6C908.23 202.267 909.563 208.067 912.23 213C915.03 217.933 918.63 221.733 923.03 224.4C927.563 226.933 932.363 228.2 937.43 228.2C942.63 228.2 947.43 226.867 951.83 224.2C956.363 221.533 959.963 217.733 962.63 212.8C965.43 207.867 966.83 202 966.83 195.2ZM1112.78 193.2C1112.78 197.2 1112.51 200.8 1111.98 204H1030.98C1031.64 212 1034.44 218.267 1039.38 222.8C1044.31 227.333 1050.38 229.6 1057.58 229.6C1067.98 229.6 1075.38 225.133 1079.78 216.2H1109.98C1106.78 226.867 1100.64 235.667 1091.58 242.6C1082.51 249.4 1071.38 252.8 1058.18 252.8C1047.51 252.8 1037.91 250.467 1029.38 245.8C1020.98 241 1014.38 234.267 1009.58 225.6C1004.91 216.933 1002.58 206.933 1002.58 195.6C1002.58 184.133 1004.91 174.067 1009.58 165.4C1014.24 156.733 1020.78 150.067 1029.18 145.4C1037.58 140.733 1047.24 138.4 1058.18 138.4C1068.71 138.4 1078.11 140.667 1086.38 145.2C1094.78 149.733 1101.24 156.2 1105.78 164.6C1110.44 172.867 1112.78 182.4 1112.78 193.2ZM1083.78 185.2C1083.64 178 1081.04 172.267 1075.98 168C1070.91 163.6 1064.71 161.4 1057.38 161.4C1050.44 161.4 1044.58 163.533 1039.78 167.8C1035.11 171.933 1032.24 177.733 1031.18 185.2H1083.78Z" fill="#83564B"/>
</svg>
