<svg xmlns="http://www.w3.org/2000/svg" xmlns:xlink="http://www.w3.org/1999/xlink" viewBox="0 0 671.22 335.54"><defs><style>.cls-1{fill:none;}.cls-2{clip-path:url(#clip-path);}.cls-3{fill:#eae0d8;}.cls-4{fill:#ddcdc3;}</style><clipPath id="clip-path"><polyline class="cls-1" points="671.22 335.54 0 335.54 0 0 671.22 0 671.22 335.54"/></clipPath></defs><title>Asset 2</title><g id="Layer_2" data-name="Layer 2"><g id="OBJECTS"><g class="cls-2"><path class="cls-3" d="M598.71,0h-516c2.3,9.94,2.84,8.4,4.34,16.41,2.76,14.7,5.47,43.91-14.25,93.56-17.95,45.22-26,38.51-37.2,72.48-9.26,28.14-11.29,66.06.86,84.26,11,16.52,30.66,13.1,38.1,35.37,3,9.1,3.42,21.24,7.21,29.29a20.43,20.43,0,0,0,2.55,4.17H598.71c1.38-11.11-1.82-25.59-5.64-38-4.55-14.73-10.2-30-10.38-45-.12-9.9,2.15-17.6,5.66-23.68,3.76-6.49,6.83-6.21,16.51-16.08,7.23-7.38,12.7-13,16.15-21.17a49.22,49.22,0,0,0,2.7-25.89c-3.54-19-18.1-20.52-37.21-45.3-9.13-11.83-22.22-28.81-21-50.16.19-3.29.87-15.66,8.63-27.5C582.23,30.42,595,23.31,598,6.2c.07-.43.13-.78.16-1,.17-1.11.41-2.94.58-5.19"/><path class="cls-4" d="M82.74,0H0V335.54H84.35a20.43,20.43,0,0,1-2.55-4.17c-3.79-8.05-4.17-20.19-7.21-29.29-7.44-22.27-27.08-18.85-38.1-35.37-12.15-18.2-10.12-56.12-.86-84.26,11.19-34,19.25-27.26,37.2-72.48,19.72-49.65,17-78.86,14.25-93.56-1.5-8-2-6.47-4.34-16.41"/><path class="cls-4" d="M671.22,0H598.71c-.17,2.25-.41,4.08-.58,5.19,0,.23-.09.58-.16,1C595,23.31,582.23,30.42,574.09,42.84c-7.76,11.84-8.44,24.21-8.63,27.5-1.18,21.35,11.91,38.33,21,50.16,19.11,24.78,33.67,26.34,37.21,45.3a49.22,49.22,0,0,1-2.7,25.89c-3.45,8.21-8.92,13.79-16.15,21.17-9.68,9.87-12.75,9.59-16.51,16.08-3.51,6.08-5.78,13.78-5.66,23.68.18,14.92,5.83,30.23,10.38,45,3.82,12.37,7,26.85,5.64,38h72.51V0"/></g></g></g></svg>