<svg width="683" height="201" viewBox="0 0 683 201" fill="none" xmlns="http://www.w3.org/2000/svg">
<path d="M41.4 60.2V113.8C41.4 117.533 42.2667 120.267 44 122C45.8667 123.6 48.9333 124.4 53.2 124.4H66.2V148H48.6C25 148 13.2 136.533 13.2 113.6V60.2H7.45058e-08V37.2H13.2V9.79999H41.4V37.2H66.2V60.2H41.4ZM73.1391 92.2C73.1391 81 75.3391 71.0667 79.7391 62.4C84.2724 53.7333 90.3391 47.0667 97.9391 42.4C105.672 37.7333 114.272 35.4 123.739 35.4C132.006 35.4 139.206 37.0667 145.339 40.4C151.606 43.7333 156.606 47.9333 160.339 53V37.2H188.539V148H160.339V131.8C156.739 137 151.739 141.333 145.339 144.8C139.072 148.133 131.806 149.8 123.539 149.8C114.206 149.8 105.672 147.4 97.9391 142.6C90.3391 137.8 84.2724 131.067 79.7391 122.4C75.3391 113.6 73.1391 103.533 73.1391 92.2ZM160.339 92.6C160.339 85.8 159.006 80 156.339 75.2C153.672 70.2667 150.072 66.5333 145.539 64C141.006 61.3333 136.139 60 130.939 60C125.739 60 120.939 61.2667 116.539 63.8C112.139 66.3333 108.539 70.0667 105.739 75C103.072 79.8 101.739 85.5333 101.739 92.2C101.739 98.8667 103.072 104.733 105.739 109.8C108.539 114.733 112.139 118.533 116.539 121.2C121.072 123.867 125.872 125.2 130.939 125.2C136.139 125.2 141.006 123.933 145.539 121.4C150.072 118.733 153.672 115 156.339 110.2C159.006 105.267 160.339 99.4 160.339 92.6ZM275.486 148L237.886 100.8V148H209.886V-1.90735e-06H237.886V84.2L275.086 37.2H311.486L262.686 92.8L311.886 148H275.486ZM313.483 92.2C313.483 81 315.683 71.0667 320.083 62.4C324.616 53.7333 330.683 47.0667 338.283 42.4C346.016 37.7333 354.616 35.4 364.083 35.4C372.349 35.4 379.549 37.0667 385.683 40.4C391.949 43.7333 396.949 47.9333 400.683 53V37.2H428.883V148H400.683V131.8C397.083 137 392.083 141.333 385.683 144.8C379.416 148.133 372.149 149.8 363.883 149.8C354.549 149.8 346.016 147.4 338.283 142.6C330.683 137.8 324.616 131.067 320.083 122.4C315.683 113.6 313.483 103.533 313.483 92.2ZM400.683 92.6C400.683 85.8 399.349 80 396.683 75.2C394.016 70.2667 390.416 66.5333 385.883 64C381.349 61.3333 376.483 60 371.283 60C366.083 60 361.283 61.2667 356.883 63.8C352.483 66.3333 348.883 70.0667 346.083 75C343.416 79.8 342.083 85.5333 342.083 92.2C342.083 98.8667 343.416 104.733 346.083 109.8C348.883 114.733 352.483 118.533 356.883 121.2C361.416 123.867 366.216 125.2 371.283 125.2C376.483 125.2 381.349 123.933 385.883 121.4C390.416 118.733 394.016 115 396.683 110.2C399.349 105.267 400.683 99.4 400.683 92.6ZM478.23 53.2C481.83 48.1333 486.763 43.9333 493.03 40.6C499.43 37.1333 506.696 35.4 514.83 35.4C524.296 35.4 532.83 37.7333 540.43 42.4C548.163 47.0667 554.23 53.7333 558.63 62.4C563.163 70.9333 565.43 80.8667 565.43 92.2C565.43 103.533 563.163 113.6 558.63 122.4C554.23 131.067 548.163 137.8 540.43 142.6C532.83 147.4 524.296 149.8 514.83 149.8C506.696 149.8 499.496 148.133 493.23 144.8C487.096 141.467 482.096 137.267 478.23 132.2V200.8H450.23V37.2H478.23V53.2ZM536.83 92.2C536.83 85.5333 535.43 79.8 532.63 75C529.963 70.0667 526.363 66.3333 521.83 63.8C517.43 61.2667 512.63 60 507.43 60C502.363 60 497.563 61.3333 493.03 64C488.63 66.5333 485.03 70.2667 482.23 75.2C479.563 80.1333 478.23 85.9333 478.23 92.6C478.23 99.2667 479.563 105.067 482.23 110C485.03 114.933 488.63 118.733 493.03 121.4C497.563 123.933 502.363 125.2 507.43 125.2C512.63 125.2 517.43 123.867 521.83 121.2C526.363 118.533 529.963 114.733 532.63 109.8C535.43 104.867 536.83 99 536.83 92.2ZM682.777 90.2C682.777 94.2 682.51 97.8 681.977 101H600.977C601.643 109 604.443 115.267 609.377 119.8C614.31 124.333 620.377 126.6 627.577 126.6C637.977 126.6 645.377 122.133 649.777 113.2H679.977C676.777 123.867 670.643 132.667 661.577 139.6C652.51 146.4 641.377 149.8 628.177 149.8C617.51 149.8 607.91 147.467 599.377 142.8C590.977 138 584.377 131.267 579.577 122.6C574.91 113.933 572.577 103.933 572.577 92.6C572.577 81.1333 574.91 71.0667 579.577 62.4C584.243 53.7333 590.777 47.0667 599.177 42.4C607.577 37.7333 617.243 35.4 628.177 35.4C638.71 35.4 648.11 37.6667 656.377 42.2C664.777 46.7333 671.243 53.2 675.777 61.6C680.443 69.8667 682.777 79.4 682.777 90.2ZM653.777 82.2C653.643 75 651.043 69.2667 645.977 65C640.91 60.6 634.71 58.4 627.377 58.4C620.443 58.4 614.577 60.5333 609.777 64.8C605.11 68.9333 602.243 74.7333 601.177 82.2H653.777Z" fill="#605047"/>
</svg>
