<svg width="806" height="422" viewBox="0 0 806 422" fill="none" xmlns="http://www.w3.org/2000/svg">
<mask id="mask0" style="mask-type:alpha" maskUnits="userSpaceOnUse" x="0" y="0" width="806" height="422">
<rect width="806" height="422" fill="#C4C4C4"/>
</mask>
<g mask="url(#mask0)">
<path d="M279.056 328.723C195.556 271.209 181.407 207.153 236.609 136.555C291.811 65.9573 370.288 28.7213 472.041 24.8468C573.794 20.9723 657.995 63.9913 724.643 153.904C791.291 243.816 779.656 300.726 689.738 324.632C599.821 348.539 529.769 369.576 479.584 387.744C429.398 405.912 362.555 386.238 279.056 328.723Z" fill="#C9593F"/>
<path d="M46.4 193.2V246.8C46.4 250.533 47.2667 253.267 49 255C50.8667 256.6 53.9333 257.4 58.2 257.4H71.2V281H53.6C30 281 18.2 269.533 18.2 246.6V193.2H5V170.2H18.2V142.8H46.4V170.2H71.2V193.2H46.4ZM78.1391 225.2C78.1391 214 80.3391 204.067 84.7391 195.4C89.2724 186.733 95.3391 180.067 102.939 175.4C110.672 170.733 119.272 168.4 128.739 168.4C137.006 168.4 144.206 170.067 150.339 173.4C156.606 176.733 161.606 180.933 165.339 186V170.2H193.539V281H165.339V264.8C161.739 270 156.739 274.333 150.339 277.8C144.072 281.133 136.806 282.8 128.539 282.8C119.206 282.8 110.672 280.4 102.939 275.6C95.3391 270.8 89.2724 264.067 84.7391 255.4C80.3391 246.6 78.1391 236.533 78.1391 225.2ZM165.339 225.6C165.339 218.8 164.006 213 161.339 208.2C158.672 203.267 155.072 199.533 150.539 197C146.006 194.333 141.139 193 135.939 193C130.739 193 125.939 194.267 121.539 196.8C117.139 199.333 113.539 203.067 110.739 208C108.072 212.8 106.739 218.533 106.739 225.2C106.739 231.867 108.072 237.733 110.739 242.8C113.539 247.733 117.139 251.533 121.539 254.2C126.072 256.867 130.872 258.2 135.939 258.2C141.139 258.2 146.006 256.933 150.539 254.4C155.072 251.733 158.672 248 161.339 243.2C164.006 238.267 165.339 232.4 165.339 225.6Z" fill="#83564B"/>
<path d="M322.142 281L284.542 233.8V281H256.542V133H284.542V217.2L321.742 170.2H358.142L309.342 225.8L358.542 281H322.142ZM360.139 225.2C360.139 214 362.339 204.067 366.739 195.4C371.272 186.733 377.339 180.067 384.939 175.4C392.672 170.733 401.272 168.4 410.739 168.4C419.006 168.4 426.206 170.067 432.339 173.4C438.606 176.733 443.606 180.933 447.339 186V170.2H475.539V281H447.339V264.8C443.739 270 438.739 274.333 432.339 277.8C426.072 281.133 418.806 282.8 410.539 282.8C401.206 282.8 392.672 280.4 384.939 275.6C377.339 270.8 371.272 264.067 366.739 255.4C362.339 246.6 360.139 236.533 360.139 225.2ZM447.339 225.6C447.339 218.8 446.006 213 443.339 208.2C440.672 203.267 437.072 199.533 432.539 197C428.006 194.333 423.139 193 417.939 193C412.739 193 407.939 194.267 403.539 196.8C399.139 199.333 395.539 203.067 392.739 208C390.072 212.8 388.739 218.533 388.739 225.2C388.739 231.867 390.072 237.733 392.739 242.8C395.539 247.733 399.139 251.533 403.539 254.2C408.072 256.867 412.872 258.2 417.939 258.2C423.139 258.2 428.006 256.933 432.539 254.4C437.072 251.733 440.672 248 443.339 243.2C446.006 238.267 447.339 232.4 447.339 225.6ZM524.886 186.2C528.486 181.133 533.419 176.933 539.686 173.6C546.086 170.133 553.353 168.4 561.486 168.4C570.953 168.4 579.486 170.733 587.086 175.4C594.819 180.067 600.886 186.733 605.286 195.4C609.819 203.933 612.086 213.867 612.086 225.2C612.086 236.533 609.819 246.6 605.286 255.4C600.886 264.067 594.819 270.8 587.086 275.6C579.486 280.4 570.953 282.8 561.486 282.8C553.353 282.8 546.153 281.133 539.886 277.8C533.753 274.467 528.753 270.267 524.886 265.2V333.8H496.886V170.2H524.886V186.2ZM583.486 225.2C583.486 218.533 582.086 212.8 579.286 208C576.619 203.067 573.019 199.333 568.486 196.8C564.086 194.267 559.286 193 554.086 193C549.019 193 544.219 194.333 539.686 197C535.286 199.533 531.686 203.267 528.886 208.2C526.219 213.133 524.886 218.933 524.886 225.6C524.886 232.267 526.219 238.067 528.886 243C531.686 247.933 535.286 251.733 539.686 254.4C544.219 256.933 549.019 258.2 554.086 258.2C559.286 258.2 564.086 256.867 568.486 254.2C573.019 251.533 576.619 247.733 579.286 242.8C582.086 237.867 583.486 232 583.486 225.2ZM729.433 223.2C729.433 227.2 729.166 230.8 728.633 234H647.633C648.299 242 651.099 248.267 656.033 252.8C660.966 257.333 667.033 259.6 674.233 259.6C684.633 259.6 692.033 255.133 696.433 246.2H726.633C723.433 256.867 717.299 265.667 708.233 272.6C699.166 279.4 688.033 282.8 674.833 282.8C664.166 282.8 654.566 280.467 646.033 275.8C637.633 271 631.033 264.267 626.233 255.6C621.566 246.933 619.233 236.933 619.233 225.6C619.233 214.133 621.566 204.067 626.233 195.4C630.899 186.733 637.433 180.067 645.833 175.4C654.233 170.733 663.899 168.4 674.833 168.4C685.366 168.4 694.766 170.667 703.033 175.2C711.433 179.733 717.899 186.2 722.433 194.6C727.099 202.867 729.433 212.4 729.433 223.2ZM700.433 215.2C700.299 208 697.699 202.267 692.633 198C687.566 193.6 681.366 191.4 674.033 191.4C667.099 191.4 661.233 193.533 656.433 197.8C651.766 201.933 648.899 207.733 647.833 215.2H700.433Z" fill="#FFF5E1"/>
</g>
</svg>
