<svg width="323" height="300" viewBox="0 0 323 300" fill="none" xmlns="http://www.w3.org/2000/svg">
<path d="M253.147 245.158C231.306 284.244 200.202 292.014 159.833 268.468C119.465 244.922 93.9282 210.114 83.2238 164.045C72.5193 117.976 86.9855 78.8772 126.622 46.7496C166.259 14.622 195.974 18.6972 215.769 58.9753C235.563 99.2534 252.202 130.582 265.684 152.96C279.166 175.338 274.987 206.071 253.147 245.158Z" fill="#C9593F"/>
<path d="M46.4 132.2V185.8C46.4 189.533 47.2667 192.267 49 194C50.8667 195.6 53.9333 196.4 58.2 196.4H71.2V220H53.6C30 220 18.2 208.533 18.2 185.6V132.2H5V109.2H18.2V81.8H46.4V109.2H71.2V132.2H46.4Z" fill="#83564B"/>
<path d="M192.595 220L154.995 172.8V220H126.995V72H154.995V156.2L192.195 109.2H228.595L179.795 164.8L228.995 220H192.595Z" fill="#FFF5E1"/>
</svg>
